<?xml version="1.0" encoding="utf-8"?>
<!-- Generator: Adobe Illustrator 24.2.3, SVG Export Plug-In . SVG Version: 6.00 Build 0)  -->
<svg version="1.1" id="Layer_1" xmlns="http://www.w3.org/2000/svg" xmlns:xlink="http://www.w3.org/1999/xlink" x="0px" y="0px"
	 viewBox="0 0 494 404" style="enable-background:new 0 0 494 404;" xml:space="preserve">
<style type="text/css">
	.st0{fill-rule:evenodd;clip-rule:evenodd;fill:#005835;stroke:#ffff;stroke-width:.5;stroke-miterlimit:10;}
	.st1{fill-rule:evenodd;clip-rule:evenodd;fill:#FFFFFF;}
	.st2{fill:#005835;stroke:#FFFFFF;stroke-miterlimit:10;}
</style>
<path stroke="#000000" stroke-miterlimit="20" class="st0" d="M492.7,77.4c0-0.6,0.9-0.6,0.9-1.2c0-0.6-0.3-1.2-0.3-1.5c-0.3,0-0.9,0.9-1.5,0.3c-0.3-0.7-0.3-1.3-0.9-1.9
	c0,0-1.2-0.3-1.5-0.3c-0.6-0.3,0.3-0.6,0-1.2c-0.4-0.3-1.9-0.9-1.9-1.2c0.3-0.3,0.6-1.8,0-1.5c-1,0.3-1-0.9-1.9-0.9
	c-0.3,0-0.9,0.3-0.9,0c-0.3-0.6-0.3-0.9-1.2-0.6c-1,0-1.9,0.3-2.5,0c-1.3-0.6-1-0.6-1.9,0c-0.6,0.3-0.9-0.3-1.2-0.6
	c-0.6-0.3-2.2,0.3-2.8,0c-0.6-0.3-1.5-0.9-1.5-1.5c0-0.6,0.3-0.9,0.3-1.2c-0.3-0.7-1.5-1.3-0.6-1.9c0.9-0.7,0.9-0.7,0.9-1.9v-2.8
	l-4.9-21.1l-18.5-26.3l-9.3-0.3c-0.9,0-2.2,0-3.1,0.3c-1,0.3-1.3,1.6-2.2,2.2c-0.6,0.3-2.1,0.9-1.2,1.5c0.6,0.6,0.3,0.9-0.6,0.9
	c-0.9-0.3,0.3,0.6-0.6,1.2c-0.3,0.3-0.3,0.6-0.3,0.9c-0.6,1.8-1.6-0.3-2.5,0.6c-0.6,0.6-0.6,0-0.6-0.6c0-1.5-3.4,2.5-2.8,0
	c0.4-1.2-0.9,0.6-1.5,0l-0.9,0.6c-0.3,0.3-0.9,0.3-1.2,0.3h-0.3c-0.3,0-0.3,0-0.6,0c-0.7,0.3-1.3,1.2-1.9,1.2
	c-0.6,0-0.3-0.9-1.2-0.6c-0.6,0-0.9,2.8-1.5,2.2c-0.6-0.7-0.3,0.9-0.6,1.2c-0.3,0.3-0.6,0-0.9,0.3s-0.3,0.9-0.6,0.9
	c-0.3,0-0.6-0.6-0.9,0.3c0,1-0.6,1.9-1.2,2.2c-0.7,0.6-1.3-0.3-1.9,0.9c-0.6,1.5-0.6,1.2-1.5,0.3c-0.3-0.3-0.9,0.6-1.2,0.6
	c-0.6,0.3-0.9-0.3-1.2,0.6c-0.3,1.2-0.3,0-0.9,0.6c0,0,0.6,0.6,0.3,0.9c-0.3,0-1.2,0-0.9,0.6c0.9,1,1.6,1.6-0.3,2.5
	c-1,0.3-1.6-0.6-1.9,0.9c0,1.3,0.3,2.2-0.9,2.8c-0.9,0.6-2.2-0.9-3.4-0.9c-1-0.3-1.9,0.3-2.5,0c-1.6-0.9-1.3,0.3-2.5-0.3
	c-0.6-0.3-0.3-1.5-1.2-1.2c-1.2,0.3-0.9-0.9-1.5-0.9c-0.3,0-0.6,0.6-0.9,0.9c-0.3,0.3-0.3,0.3-0.3,0.3l-3.4-0.3l-4.3-3.1l-4.6-2.8
	l-8-1.9L367,24l-3.4-0.9l-16.2-0.6l-0.8,0l-17.9,0.6l-2.5,0.9l-4.6,1.9l-4.6,1.5l-6.2-0.6l-6.8,3.1l-4.6,3.4l-3.7,4l-1.9,2.5
	l-5.6,6.2l-3.4,0.6l-5.9-0.6h-4.3l-3.7-0.3l-9.6-0.6l-1.9,0.3l-13.6-5l-1.2-2.2l-1.9-1.9l-3.1-1.2l-3.1,0.3l-6.5-6.5l-1.9-0.3
	l-4-3.1l-12.4-2.2l-17.6,11.1l-6.5-1.9l-3.7,4l-2.5,1.2l-5.3-0.3l-1.9-1.5l-0.9-1.5h-1.5l-0.3-1.9l-1.5-1.2l-4.3-7.7l-10.8-11.8
	l-6.8-3.1l-0.1,0l-5.2,1.2L140,8.4L129,5l-4.9-2.2h-1.2l-0.6-0.6L117.4,0L110,1.9l-0.3,1.9l-2.5,2.8l-9-0.6l-2.5,0.9l-4.3-0.6
	l-1.2-1.9L73.5,8.7l-9.6,8.7l-4,0.3v13.9l-1.5,7.7L55.6,43l-3.7,5.9l-11.7,9.6L40.5,69l-0.6,2.2l-0.3,3.7l1.9,6.5L39,83.9v3.4
	l2.8,0.9l0.3,2.2L39,92.9l-2.5,4.6L34,109.9l2.8,2.8l6.5,4.3v4c0.3,0.3,0.9,0.6,1.2,0.9c0.3,0.9,0.3,1.9,0.6,2.8
	c0.3,1.2-0.6,2.5-0.9,3.7c-0.3,1.5,0.6,2.8,0.9,4c0.6,0.6,0.6,1.2,1.2,1.5c0.6,0.6,1.2,0.6,1.5,1.5c0.3,2.2,0.3,3.4-0.3,5.3
	c-0.6,1.2-0.9,2.5-0.9,4c0,1,0,1.9-0.3,2.5c-0.3,0.3-3.1-1.6-3.7-1.9c-1.2-0.6-2.8,1.3-3.1,2.2c0.3,1.6-2.5,5-1.9,5.9
	c0.6,0.6,0.3,2.2,1.2,2.5c0.9,0.6,1.9,0.9,2.8,1.2c0,0.3,0,2.5-0.3,2.8c-1.3,0.6-2.2,1-2.5,2.5c0,1.2,0,2.8-0.3,3.7
	c-0.3,0.6-1.5,0.6-1.5,1.2c0,0.7,0,1.6-0.6,1.9c-0.3,0-0.9,0.6-1.2,0.9c-0.3,0.3-1.9,0-2.2,0c-1.2,0-2.5,0.6-3.4,0.9
	c-1.9,1-3.7,2.8-2.2,5.3c1.5,1.9-2.2,2.5-3.4,2.8c0,2.1-0.4,2.7-1.9,4.6c-1.2,1.8-2.8,1.8-3.1,4c-0.3,1.2,0.3,3.1,0.6,4.3
	c0.3,1.2,0.3,2.5-0.3,3.4c-0.3,1-0.6,1.3-0.9,2.2c-0.3,1.2-1.2,1.9-1.2,3.1c-0.4,1.6-0.7,1.6-1.9,2.2c-0.3,0.3-0.9,0.3-1.5,0.3
	c-0.9,0.3-2.2,0.6-3.1,0.9c-1.5,0.3-2.8,0-4.3,0H4.9v1.2c-0.3,0.7-0.3,1.3-0.6,1.9c-0.3,0.6,0.3,0.6,0.3,1.2c0,0.3,0,0.9-0.3,1.2
	c0,0.3-0.6,0.3-0.6,0.6c0,0.6,0.6,0.6,0,1.2c-0.6,0.3,0,0.3,0,0.6c0.3,0.3,0,0.9,0,1.2c0.3,1.2,0.3,0.9-0.6,1.2
	c-1.2,0.6-0.3,1.9,0,2.5c0,0.3-0.3,0.9,0,1.2c0.3,0.6-0.3,0.3-0.6,0.9c0,0.3,0.6,0.6,0.3,0.9c-0.6,0.3-0.3,0.3,0,0.6
	c0.3,0,0.3,0.3,0.3,0.6c0.3,1.2,0.6,2.8,0.6,4c0,0.6-0.3,2.8-0.6,3.4c-0.6,1-2.1,1-1.5,2.2c0.6,1.2-0.9,1.9-0.6,3.1
	c0,0.7,0.3,1.9,0.3,2.2c0.3,0.3,1.2,2.2,1.5,2.2s0.3,0.3,0.6,0.6v0.9c0,0.6,0,0.9-0.3,1.5H2.8c-0.3,1-0.6,1.6-0.3,2.5
	c0.3,0.6,0,2.2-0.3,2.5c-1,1.6-1,3.8-1.9,5.3C0,251.8,0,251.8,0,252.1l2.2,4.6c0,1.5,0,2.8-0.3,4.3c0,0.6-0.3,2.2,0,3.1
	c0.9,0,0.6,1.6,0.6,2.2c0.3,0.3,0.6,1.2,1.2,1.2c0.3,0,0.9,0.3,1.2,0.3v1.5c0.3,0.7,0,1.6,0.3,2.2L3,271.8v6.8
	c0.6,0.9,0.9,3.1,0.9,4.3c0,1.3-0.9,1-1.2,1.9c0,0.3,0.6,1.9,0.6,2.2c0.3,1.3-0.9,1-1.2,2.5c0,0.9-0.9,2.5,0.6,2.8
	c0.3,1.2,0,2.5,0,3.7c-0.3,0.7-0.3,1.6,0,2.2c0.7,0.9,1,0.6,1.9,0.6v2.2c0.3,1.5-2.2,2.2-2.2,3.7c0,0.6,0.3,1.6,0.3,2.5
	c0,1-0.9,1-1.2,1.9c0,0.3,0.6,0.6,0.3,1.2c-0.3,0.7-0.6,1.3-0.6,1.9c0,0.9,0.3,2.5,0.3,3.4c1.6,0,2.8-0.3,9.4,0.8
	c4.3-0.9,8.4-0.3,13-0.6l6.5-0.6c0.6,0,3.7,0.3,4.3,0c0-0.7-0.3-1.3,0-2.2s0.9-1.6,0.6-2.8c-0.4-1.6,1.2-1,1.5-2.2
	c0.3-0.3,1.2-1.2,1.5-0.9c0,1.6-1.6,2.2,0.9,3.1c1-0.3,1.3-0.3,2.5-0.9c0.7-0.3,1.3,0.3,2.2,0c1.5-0.7,2.5-1.9,4-2.2
	c1-0.3,1.8-0.4,2.7-0.4c-0.6,0.3-1.2,0.7-1.5,1.3c0,0.6-0.8,1.2-1.5,1.2c-0.7,0-1.3,0.3-1.9,0.6c-0.9,0.3-2.8-0.3-3.4,0.9
	c-0.3,1-1.5,2.2-2.5,2.2s-1.3-0.9-2.2-0.6h-1.9v1.9l20.7-0.9l6.2,0.9l12,1.9c3.4,0.6,5.5,2.1,8.3,4c0.6,1.3,2.5,1.9,3.7,2.8l6.8,5.9
	c1.6,1.5,4.7,4.3,5.3,6.5c0.6,1.5,2.2,2.8,2.8,4.3c0.3,0.7,0.9,1.9,1.5,1.9c0,0.3,2.2-2.2,2.8-2.5c0.9-0.3,5.3-3.1,6.2-3.1
	c-0.3,0.3-4.6,3.1-4.9,3.4c-0.9,0.7-2.5,0.7-2.8,1.9c-0.6,2.5,0.7,4,2.2,5.9c0.6,0.6,1.3,1.8,2.5,1.2c1.6-0.6,4.1-0.9,5.3,0
	c0.7,0.3,1.3,0.6,1.9,0.3c0.3,0,1.2-0.9,1.2-0.3c-0.3,0.3-0.3,0.9-0.9,0.9c-1.5,0-3.1-0.3-4.6-0.6c-1.8-0.3-3.1,0.4-4,1.9
	c-1,1.3,3.4,5,4.3,5.6l3.4,0.6c1,0.3,1.6,0.6,2.5,0.6c1.5,0,0.3-0.9,0.6-1.2c0.6-0.3,1.6,1.6,2.5-0.6c0.9-2.2,0.6-3.1,3.1-3.1
	c1.3,0,0.9-1.8,2.8-1.2c0,0.3-0.6,0.3-0.9,0.3c-0.9,2.2-3.1,1-3.7,2.2s-0.3,1.9-0.3,3.1s-1.3,0.3-1.9,0.6c-0.9,2.1-0.6,1.5-2.8,1.5
	h-3.1c-0.3,0.3,0.3,1.9,0.3,2.2c0.3,1.3,0.9,3.8,0.6,5c-0.6,1.5,0.6,1.8,0.9,3.7c1.6,2.4,2.5,4.6,3.1,7.4c0.9,3.1,2.8,5.3,4,8.4
	c0.3,1.3,2.8,4.4,3.7,5.3c4.3,3.4,8.4,8.6,13.3,10.8c0.3-0.9,0-1.9,0.3-2.8c0.3-1,0.6-1.6,0.9-2.2c0.3,0-0.3,1.6-0.3,1.9v2.2
	c0,1.6-0.7,1.6,1.2,2.2c0.6,0.3,1.9,0.6,2.5,0.6v-2.2c0-0.7-0.3-1.6,0-1.9c0.3,0.3,0.3,2.8,0.3,3.4c0,0.9,0.9,0.6,1.5,0.6
	c0.3,0,0.8,0,1.3,0.1c0.9,0.1,1.9,0.1,2.4-0.1c1.5,0.3,0.6-1.9,0.6-2.5c0-1.2,1.5-2.5,1.2-3.7c-0.3-0.3-0.6-2.2-0.3-2.2
	c0.3,0.6,0.6,3.4,0.9,3.7c0.7,0.6,1.6-1.9,1.9-1.9c0.3,1.2-2.2,3.4-2.5,4.6c0,0-0.6,1.2-0.3,1.2c0.6,0,2.8-0.3,3.7-0.3
	c1.2,0,2.5,0,3.4-0.3c0-0.6-0.3-0.9-0.3-1.2c0-0.3,1.2-0.6,1.2-0.3c0,0.9,0.6,1.2,1.5,0.9c0.9,0,2.5-0.3,3.4-0.3
	c0.3,0,1.5,0,1.2-0.6c-0.7-1.6,1.2,0,1.5,0.3c1,0.9,1.3-0.3,2.2-0.6c0.6-0.3,1.5,0,1.2-0.9c-0.3-0.9-1.5-1.9-1.5-2.8
	c0-0.4,0-1.9-0.3-1.9c0,0-0.3-0.3-0.3-0.6c0-1.9,1.2,1.2,1.2,1.5c0,0.3,0.3,0.6,0.3,0.9c0.6,1.3,0.6-0.6,0.3-0.9
	c-0.6-1.5,0-2.2,0.6-3.4c0.3-0.9,0.6-1.9,0.6-2.8c0,1,0.3,1.6,0,2.5c-0.3,0.7-0.9,1.3-0.9,2.2c0,1.3,0.3,1.3,0.6,1.9
	c0,0.3-0.3,0.6-0.3,1.2c0.7,1.6,0,3.4,2.2,3.1c0.9,0,2.2-0.3,3.4-0.3c2.5,0,0-1.3-0.3-2.5s-0.3-2.5-0.6-3.7
	c-0.3-0.6-0.9-2.2-0.9-2.8c0-1,1.8-1.6,0.9-2.5c-0.3-0.3-1.2-0.9-1.2-1.5c0-0.3,1.6,0.9,1.9,1.2c1.3,1.3-0.9,1.6-0.6,2.8
	c0.6,1.8,0.6,5.9,2.5,6.8c1,0.6,4.1,1.5,5.3,0.9c1.3-0.6-0.3-2.5-0.6-3.4c-0.3-0.3-0.9-2.2-0.6-2.5c0.3-0.9,0-3.4,0-4.3
	s-0.6-1.9-0.6-2.8c0.3,0.6,0.9,2.2,0.9,2.5c0,1.2,0,1.9,0.3,3.1c0.3,0.9,0.3,1.9,0.6,2.8c0,0.6,0,1.2,0.3,1.5
	c1.5,0.6,2.5-0.3,3.7-0.6c1.3-0.3,2.2,0.7,2.5-1.5c0.3-1.6,0.6-4.4-0.9-5.6c-0.6-0.7-2.2-1.3-2.5-1.9c0.4,0.3,1.3,0.9,1.9,0.9
	c1.3,0.6,1.6,2.2,2.5,3.1l0.9,1.2c0,0.3,0.6,1.2,0.6,1.2c-0.6,0-0.9-0.3-1.2,0.3c-0.3,0.7-0.9,1.3-1.5,1.9c-0.3,0.6-2.5,2.2-2.2,3.1
	c0.3,0.9,2.2,1.2,3.1,0.9c0.9-0.3,2.2-0.9,3.4-1.2c0.6-0.3,0.9,0,0.9-0.9c0-0.3-0.3-0.9-0.3-1.2s0.3-1.2,0-1.5s0.6,0,0.9,0
	c0,0.3-0.6,0.6-0.6,0.9c0,0.6-0.3,0.9,0.6,1.2c2.2,0.3,3.4,0.3,5.6,0c0.9-0.3,3.7-0.3,4.3-0.6v-1.2c0.6-0.3,0.9,0.6,0.9,0.9
	c1,0.3,1.3-0.3,2.2-0.6c0.9-0.3,2.2-0.6,3.4-0.6c1.3,0,3.8-0.9,5.3-0.9c5.6-0.3,11.7-0.9,17,0c0.3-0.7,0.3-1.3,0.6-1.9
	c0.4-1.5,1.9,0,1.9-1.5c-0.3-0.6-0.9-0.9-0.9-1.5c0-0.3-0.3-0.3,0-0.6c0.9-0.6,0-1.9,0-2.5c0.4-1.3-0.6-1.6-1.5-2.5l-1.2-1.5
	c0,0-0.6,0-0.6-0.3c-0.3-0.3,0.9,0.3,1.2,0.3c0.6-0.3,0.6,1.5,1.5,0.9c0.3-0.3-0.3-0.6-0.6-0.9c-0.3-0.3,0-0.6,0-0.9
	c-0.6-0.6-1.2-0.9-1.5-1.5c-0.6-1-0.9-1.9-1.5-2.5c-0.3-0.3-1.9-1.5-2.2-1.5c-0.3-1.6,1.6,0.9,2.5,1.5c0.3,0,0.9,0.9,1.2,0.9
	c0.3,0.3,1.5-1.2,1.2-0.6c-0.3,0.3-0.3,0.6-0.6,0.9c-1.3,1.2,1.2,1.9,1.5,3.1c0,0.6,0.9,2.2,1.5,2.5c0.3,0.3,1.5-0.3,1.5,0.3
	c0,0.3-0.6,0.6,0,0.9c1,0.6,0.7,1.2,1.9,0.6c0.6-0.3,1.5-0.9,0.9,0.3c0,0.3,0.3,1.2,0.9,1.2c0.3,0,0.9-0.3,1.2-0.3
	c0.6-0.3,1.2-0.6,0.9-1.5c0-0.3,0.3-0.9,0.3-1.2c0-0.7,0-1.6,0.6-1.9c0.3,0,0.3,0,0.6,0l0.6,0.3l1.5-0.9c0-1-0.9-1.6-0.9-2.2
	c0-0.9,0.3-0.9,1.2-1.2c0.9-0.3,0.6-0.6,0.6-1.2c-0.4-0.7,1.8-1.6,1.5-1.9c-0.6-0.9,0.3-0.9,0.6-1.5c0.6-0.9,0.6-2.2,1.5-3.1
	c0.3-0.3,0.9-0.3,1.2-0.6l0.9-2.2c0.3-0.6,0.9-0.9,0.6-1.5c-0.3-1.3,0.3-4.4,0.6-5.9c0-0.7,0.6-1.3,0.3-1.9
	c-0.6-0.9-0.3-1.9,0.3-2.8c0.3-1,0.9-1.6,1.5-2.5c0.3-0.6,0.9-0.9,1.2-1.5c0.3-0.6-0.6-2.2-0.9-2.8c-0.4-0.7-1.3-1.3-1.9-1.9
	c-1.6-1.6,0.6-1,0.3-2.5c-0.3-0.6,0.9-0.6,0.6-1.2c-0.3-0.4,0.3-1.6,0.3-1.9l-0.6-1.9l0.9-0.3l0.6-1.2l0.9-0.6l5.6-4.3l3.4-3.4
	c0.6-1.6,1.2-3.4,3.4-3.1c1.6,0.3,1.6-1.3,2.2-2.2c1-1.2,2.2-2.8,2.5-4.3c0.6-2.5,2.5,0,3.4,0.6l1.9-5.9c1.5,0.3,2.5,0.9,3.7,0
	c0.9-0.7,1.2-0.7,1.2-1.9c0-0.6,0.3-0.9,0.9-0.9c0.7,0,1.6-0.3,1.9,0c0.4,0.3,1.3,0.6,1.9,0.3c0-0.6,1.3-5.3,1.9-5.9
	c0-0.3-0.6-0.6,0-0.9c0.6-0.3,0-0.9,0.3-1.5c0.3-0.6,0.6-0.9,0.6-1.5c0-0.9,0.6-1.8,1.5-1.5c0.7,0.3,1.3,0.9,2.2,0.3l11.4-10.2
	c0,0,0.6-0.3,0.6,0v0.3l0.3,0.3v0.9c0,0,0,0.3,0,0.6c0,0.3,0.3,0.6,0,0.9c0,0.3-0.3,0.6,0,0.9l1.9,1.5l10.2-0.9l1.2,0.6l0.6-0.6
	c0.3,0,0.6,0,0.9-0.3c0.3,0,0.6,0,0.6-0.3c0.3-0.4,0.3-1.3,0.6-1.9l0.6-7.4c0.6,0.4,1.2,1,1.2,1.9c0,0.6-0.3,0.9-0.3,1.5l0.9,0.9
	c0.6,0.3,2.2-0.6,2.5,0.6c0,0.9,0.6,0.9,1.2,1.5c0.7,0.6,1.3,1.8,2.2,1.5c0.9-0.6,2.5,0.6,3.1,0.9l-0.9,4c0.9,1.6,2.5,1.6,3.1,2.8
	c0.3,0.6,0.9,0,0.9,0.6c0,1.3-0.3,1.6,0.6,2.5c2.2,1.9,4-1.5,6.2,0c0.9,0.6,0.6,3.4,0.6,4.6c0,0.6,0,3.4,0.9,3.1
	c0.3-0.3,0.6-0.6,0.9-0.3c0.9,0.6,0,0.6,1.5,0.6c1.6,0,0.7-1.8,2.2-1.2c0.9,0.3,0.6,0.9,1.5,0.3c0.4-0.3,1.6-0.6,1.9,0.3
	c0,0.6,0.9,1.2,1.5,0.9c0.3,0,0.3-0.6,0.9-0.9c1,0,1.9,0.3,2.2-0.6c0.3-1,0.3-1.3,0-1.9c0-0.3,1.2-0.3,1.5-0.6
	c0.3-0.3,0.9,0.3,1.2,0.3c0.9,0,1.2-1.6,1.5-1.9c0.6-0.6,0.9-0.6,0.9-1.5c0-0.6-0.3-0.9,0.3-1.2c0.9-0.7,0.9-1,0.3-1.9
	c-0.6-1,0.9-1,0.9-1.9c-1.2-0.3-0.3-0.6-0.6-1.5c-1.2-0.6-0.9-1.6-0.3-2.5c0.3-0.3,1.5-0.3,1.5-0.9c0-0.3,0-0.6,0.3-0.9
	c0.6-0.6,0.3-0.3,0.3-1.2s0.6-0.6,1.2-0.6c0.3,0,2.2-1.2,2.2-1.5c1.2-1.5,2.5,0.4,3.4-1.5c0.3-0.6,0.9-0.9,1.5-0.3
	c0.6,0.3,0.3-0.6,0.9-0.6c0.3,0.6,0.9,0,1.2-0.3c0.6-1.2-0.3-2.2-0.3-3.4c0-0.6-0.3-0.9-0.3-1.5c0-0.3,0.9-0.9,0.9-1.5
	c-0.6-0.3-1.5,0-1.2-0.9c0-0.3,0.3-0.3,0.6-0.6c0.3-0.3,0.3-0.6,0.3-0.9c0.3-0.3,0.9-0.3,0.6-0.9c-0.3-1,0.3-1.6,0.9-1.9
	c0.9-0.7,0.3-1.3,0.6-1.9c0.3-0.7-0.6-1.3-0.3-1.9c0-0.6,0.6-0.9,1.2-0.9c0.6,0.3,0.6,0,0.9-0.3c0.7-0.3,1.9,0,2.2-0.9
	c0-0.3-0.6-0.6-0.6-0.9s0.6-0.6,0.3-0.9c-0.6-0.3-0.3-0.9-0.3-1.5c0-1-0.6-1.3-0.6-2.2c0.3-0.6,0.6-0.3,0.9-0.9
	c0.6-1.3,0.9-1.6,1.5-2.5c0.3-0.6,0.3-1.9,0.9-2.5l2.8-3.7c0.6-0.7,0.6-1.6,1.2-1.9c0.3-0.3,0.9-0.3,0.9-0.6c0-0.3,0-0.6,0.3-0.9
	l-0.6-5.9l2.5-2.5l-0.3-9.3l0.9-2.2c1,0.3,1.3,0.6,1.9,0.9c1,0.6,1.3-1.6,2.5-1.9s4.3-2.5,3.7-3.7c0-0.3-1.5-2.8-0.6-2.5
	c1.6,0.3,1.6-0.9,2.8-0.9c1.2,0,1.9,1.9,3.4,1.9c0.9,0,0.6-0.6,0.6-1.2c0-0.9,1.6-0.9,2.2-1.2c3.1,1,1.2-5.8,4.3-4.3
	c0.3,0,1.2,0.6,1.2,0.6c0.3-0.3,0-1.6,0.6-2.2c1.2-1-0.3-1.6-0.3-2.5c0.6-0.7,1.2-1.3,0.9-2.2c-0.3-0.9,0.6-2.8,1.2-3.4
	c1.3-1.3,2.2-3.5,2.5-5c0-0.9-0.6-0.9-0.6-1.5c0-0.6,0.3-1.9,0.6-2.5c0-0.9,0.3-1.9,0.3-2.8c0-0.9,1.2-2.8-0.3-2.8
	c-0.7,0-2.2-0.3-2.2-1.2c1.3,0,1.2-1.5,2.5-1.5s1.3-0.6,1.9-1.5c0.6-0.9,2.5-2.5,3.4-2.8c1.5-0.6,3.4-0.6,4.9-1.2
	c0.6-0.3,0.9-0.9,1.5-0.9c2.2-0.3,0.7-4.1,1.9-5.3c0.3-0.3,0.6-0.3,0.6-0.9c0-0.3-0.3-0.6-0.3-0.9c0-1.2,0.9-2.2,1.5-3.4
	c0.7-1-0.9-1.6-1.5-1.9c-0.9-0.7-0.3-1-0.6-1.9c-0.4-1.6,2.7-1.2,1.5-3.1c-0.3-1-1.2-0.7-1.2-1.9s0.9-0.6,1.5-1.2
	c0.6-0.6,0-2.2,1.5-2.8c0.9-0.3,1.9,0.3,2.8,0c0,0,0-0.3,0-0.6c0.6-0.3,1.2,0.6,1.5,0.3c0.3-0.3,0-0.9-0.3-1.2
	c-0.7-0.6,1.2-0.3,1.5-0.9c0.6-1.5,0.6-0.6,1.5-1.5c0-1.3-0.6-1.3,0.3-2.2c0.9-0.9,0.9-3.1,1.2-4.3c0-0.3-0.6-1.9-0.6-2.5
	c-0.3-0.7-0.3-1.3,0-1.9c0.3-0.6,0.3-0.6,0.3-1.2c0-1.2,1-0.6,1.9-0.9c1.3-0.3-0.6-0.9-0.6-1.5c0-0.9-0.6-2.5,0-3.1
	c0.6-0.3,0-0.9,0.6-1.5c0.6-0.6-0.3-0.9,0.3-1.5c0.3-0.6,1.2-0.3,1.2-0.9c0.3-0.6-0.3-0.9,0.3-1.2c0.3-0.3,1.2-1.2,0.6-1.5
	c-0.6-0.3,0-0.9,0.3-1.2c0.3,0,0.9,0.3,0.9-0.3c0-0.6,0-1.2,0.9-0.9s0.9-1.6,0.9-1.9c0-0.6-0.6-2.2-0.3-2.8c0-0.3,0.6-0.3,0.6-0.6
	c0.3-0.6-0.3-1.2,0.9-1.2c0.3,0,0.9,0.3,1.5,0c0.3-0.3,0.6-2.2,1.2-2.8c0.6-0.6,1.2,0.1,1.5-0.9s0.9-1,0.9-2.2
	c0-0.6,0.6-0.3,0.9-0.6c0.3-0.3,0.3-1.2,0.6-1.5c0.9-0.9,1.9-4.6,3.1-4.6c1.5,0,2.1,1.8,4,1.5c2.2-0.3,3.1,2.8,5.6,0
	c1.2-1.3,1.9-1.6,3.1-2.2c1.5-0.6,2.5-1.6,3.7-2.5c0.9-0.4,1.6-1.9,2.8-1.9c1.5,0,2.1-2.2,4-2.5c2.5-0.6,4.6-3.4,4-5.9
	c-0.3-1-1.2-1.6-1.5-2.5c-0.3-1.6-2.2,0-2.5-1.9c0.6-0.3,2.2-1.6,2.5-2.2c0.3-0.3,0.6-2.8,0.3-3.4c-0.7-1.3,1.2-1.6,1.2-2.5
	c-0.3-0.3-0.6-0.3-0.6-0.6s0.6-0.6,0.6-1.2c0-1.3-0.6-1.6-0.9-2.5c-0.6-1.6,0-1.3,0.9-2.2c-0.6-0.6-1.2-0.6-0.3-1.5
	C492.7,78,492.7,78,492.7,77.4z M68.1,312.5c-0.3,0-1.5,0.3-1.5,0.6c0.3,0,0,0.9-0.3,0.9l-0.3-0.6c-0.6-1.2-1.9-0.6-2.8-0.6
	c1.2,0.6,0.9,1.2-0.3,0.3c-0.3-0.3-2.5-1.2-2.5-1.5c-0.4-0.3-3.1-1.2-1.9-1.5c1.2-0.3,2.8,0.6,4,0.6c0.5,0,1.3-0.7,1.1-1.3
	c-1.3,0.3-2.2-0.9-3.9-1.1c-1.9-0.6-3.4-1.5-5.6-1.5c-1.2,0-2.3-0.1-3.5-0.1c1.4-0.6,3.2-0.5,4.7-0.2c1.9,0.3,3.4,0.9,5.3,1.5
	c0.6,0.3,2.5,0.6,2.8,1.2c0.1,0.1,0.1,0.2,0.2,0.2c0.3-0.1,0.7-0.2,1-0.5c1.6-1.6,5.3-1,2.8,1.2c-0.6,0.6-1.5,0.3-1.5,1.5
	C65.9,312.5,67.2,312.2,68.1,312.5z"/>
<path stroke="#000000" stroke-miterlimit="20" class="st1" d="M347.4,22.5v280.8c-2.2-1.5-4,1.9-6.2,0c-0.9-0.9-0.6-1.2-0.6-2.5c0-0.6-0.6,0-0.9-0.6
	c-0.6-1.2-2.2-1.2-3.1-2.8l0.9-4c-0.6-0.3-2.2-1.5-3.1-0.9c-0.9,0.3-1.5-0.9-2.2-1.5c-0.6-0.6-1.2-0.6-1.2-1.5
	c-0.3-1.2-1.9-0.3-2.5-0.6l-0.9-0.9c0-0.6,0.3-0.9,0.3-1.5c0-0.9-0.6-1.5-1.2-1.9l-0.6,7.4c-0.3,0.6-0.3,1.5-0.6,1.9
	c0,0.3-0.3,0.3-0.6,0.3c-0.3,0.3-0.6,0.3-0.9,0.3l-0.6,0.6l-1.2-0.6l-10.2,0.9l-1.9-1.5c-0.3-0.3,0-0.6,0-0.9c0.3-0.3,0-0.6,0-0.9
	c0-0.3,0-0.6,0-0.6v-0.9l-0.3-0.3V290c0-0.3-0.6,0-0.6,0l-11.4,10.2c-0.9,0.6-1.5,0-2.2-0.3c-0.9-0.3-1.5,0.6-1.5,1.5
	c0,0.6-0.3,0.9-0.6,1.5c-0.3,0.6,0.3,1.2-0.3,1.5c-0.6,0.3,0,0.6,0,0.9c-0.6,0.6-1.9,5.3-1.9,5.9c-0.6,0.3-1.5,0-1.9-0.3
	c-0.3-0.3-1.2,0-1.9,0c-0.6,0-0.9,0.3-0.9,0.9c0,1.2-0.3,1.2-1.2,1.9c-1.2,0.9-2.2,0.3-3.7,0l-1.9,5.9c-0.9-0.6-2.8-3.1-3.4-0.6
	c-0.3,1.5-1.5,3.1-2.5,4.3c-0.6,0.9-0.6,2.5-2.2,2.2c-2.2-0.3-2.8,1.5-3.4,3.1l-3.4,3.4l-5.6,4.3l-0.9,0.6l-0.6,1.2l-0.9,0.3
	l0.6,1.9c0,0.3-0.6,1.5-0.3,1.9c0.3,0.6-0.9,0.6-0.6,1.2c0.3,1.5-1.9,0.9-0.3,2.5c0.6,0.6,1.5,1.2,1.9,1.9c0.3,0.6,1.2,2.2,0.9,2.8
	c-0.3,0.6-0.9,0.9-1.2,1.5c-0.6,0.9-1.2,1.5-1.5,2.5c-0.6,0.9-0.9,1.9-0.3,2.8c0.3,0.6-0.3,1.2-0.3,1.9c-0.3,1.5-0.9,4.6-0.6,5.9
	c0.3,0.6-0.3,0.9-0.6,1.5l-0.9,2.2c-0.3,0.3-0.9,0.3-1.2,0.6c-0.9,0.9-0.9,2.2-1.5,3.1c-0.3,0.6-1.2,0.6-0.6,1.5
	c0.3,0.3-1.9,1.2-1.5,1.9c0,0.6,0.3,0.9-0.6,1.2c-0.9,0.3-1.2,0.3-1.2,1.2c0,0.6,0.9,1.2,0.9,2.2l-1.5,0.9l-0.6-0.3
	c-0.3,0-0.3,0-0.6,0c-0.6,0.3-0.6,1.2-0.6,1.9c0,0.3-0.3,0.9-0.3,1.2c0.3,0.9-0.3,1.2-0.9,1.5c-0.3,0-0.9,0.3-1.2,0.3
	c-0.6,0-0.9-0.9-0.9-1.2c0.6-1.2-0.3-0.6-0.9-0.3c-1.2,0.6-0.9,0-1.9-0.6c-0.6-0.3,0-0.6,0-0.9c0-0.6-1.2,0-1.5-0.3
	c-0.6-0.3-1.5-1.9-1.5-2.5c-0.3-1.2-2.8-1.9-1.5-3.1c0.3-0.3,0.3-0.6,0.6-0.9c0.3-0.6-0.9,0.9-1.2,0.6c-0.3,0-0.9-0.9-1.2-0.9
	c-0.9-0.6-2.8-3.1-2.5-1.5c0.3,0,1.9,1.2,2.2,1.5c0.6,0.6,0.9,1.5,1.5,2.5c0.3,0.6,0.9,0.9,1.5,1.5c0,0.3-0.3,0.6,0,0.9
	c0.3,0.3,0.9,0.6,0.6,0.9c-0.9,0.6-0.9-1.2-1.5-0.9c-0.3,0-1.5-0.6-1.2-0.3c0,0.3,0.6,0.3,0.6,0.3l1.2,1.5c0.9,0.9,1.9,1.2,1.5,2.5
	c0,0.6,0.9,1.9,0,2.5c-0.3,0.3,0,0.3,0,0.6c0,0.6,0.6,0.9,0.9,1.5c0,1.5-1.5,0-1.9,1.5c-0.3,0.6-0.3,1.2-0.6,1.9
	c-5.3-0.9-11.4-0.3-17,0c-1.5,0-4,0.9-5.3,0.9c-1.2,0-2.5,0.3-3.4,0.6c-0.9,0.3-1.2,0.9-2.2,0.6c0-0.3-0.3-1.2-0.9-0.9v1.2
	c-0.6,0.3-3.4,0.3-4.3,0.6c-2.2,0.3-3.4,0.3-5.6,0c-0.9-0.3-0.6-0.6-0.6-1.2c0-0.3,0.6-0.6,0.6-0.9c-0.3,0-1.2-0.3-0.9,0
	s0,1.2,0,1.5s0.3,0.9,0.3,1.2c0,0.9-0.3,0.6-0.9,0.9c-1.2,0.3-2.5,0.9-3.4,1.2c-0.9,0.3-2.8,0-3.1-0.9c-0.3-0.9,1.9-2.5,2.2-3.1
	c0.6-0.6,1.2-1.2,1.5-1.9c0.3-0.6,0.6-0.3,1.2-0.3c0,0-0.6-0.9-0.6-1.2l-0.9-1.2c-0.9-0.9-1.2-2.5-2.5-3.1c-0.6,0-1.5-0.6-1.9-0.9
	c0.3,0.6,1.9,1.2,2.5,1.9c1.5,1.2,1.2,4,0.9,5.6c-0.3,2.2-1.2,1.2-2.5,1.5c-1.2,0.3-2.2,1.2-3.7,0.6c-0.3-0.3-0.3-0.9-0.3-1.5
	c-0.3-0.9-0.3-1.9-0.6-2.8c-0.3-1.2-0.3-1.9-0.3-3.1c0-0.3-0.6-1.9-0.9-2.5c0,0.9,0.6,1.9,0.6,2.8s0.3,3.4,0,4.3
	c-0.3,0.3,0.3,2.2,0.6,2.5c0.3,0.9,1.9,2.8,0.6,3.4c-1.2,0.6-4.3-0.3-5.3-0.9c-1.9-0.9-1.9-5-2.5-6.8c-0.3-1.2,1.9-1.5,0.6-2.8
	c-0.3-0.3-1.9-1.5-1.9-1.2c0,0.6,0.9,1.2,1.2,1.5c0.9,0.9-0.9,1.5-0.9,2.5c0,0.6,0.6,2.2,0.9,2.8c0.3,1.2,0.3,2.5,0.6,3.7
	s2.8,2.5,0.3,2.5c-1.2,0-2.5,0.3-3.4,0.3c-2.2,0.3-1.5-1.5-2.2-3.1c0-0.6,0.3-0.9,0.3-1.2c-0.3-0.6-0.6-0.6-0.6-1.9
	c0-0.9,0.6-1.5,0.9-2.2c0.3-0.9,0-1.5,0-2.5c0,0.9-0.3,1.9-0.6,2.8c-0.6,1.2-1.2,1.9-0.6,3.4c0.3,0.3,0.3,2.2-0.3,0.9
	c0-0.3-0.3-0.6-0.3-0.9c0-0.3-1.2-3.4-1.2-1.5c0,0.3,0.3,0.6,0.3,0.6c0.3,0,0.3,1.5,0.3,1.9c0,0.9,1.2,1.9,1.5,2.8
	c0.3,0.9-0.6,0.6-1.2,0.9c-0.9,0.3-1.2,1.5-2.2,0.6c-0.3-0.3-2.2-1.9-1.5-0.3c0.3,0.6-0.9,0.6-1.2,0.6c-0.9,0-2.5,0.3-3.4,0.3
	c-0.9,0.3-1.5,0-1.5-0.9c0-0.3-1.2,0-1.2,0.3c0,0.3,0.3,0.6,0.3,1.2c-0.9,0.3-2.2,0.3-3.4,0.3c-0.9,0-3.1,0.3-3.7,0.3
	c-0.3,0,0.3-1.2,0.3-1.2c0.3-1.2,2.8-3.4,2.5-4.6c-0.3,0-1.2,2.5-1.9,1.9c-0.3-0.3-0.6-3.1-0.9-3.7c-0.3,0,0,1.9,0.3,2.2
	c0.3,1.2-1.2,2.5-1.2,3.7c0,0.6,0.9,2.8-0.6,2.5c-0.6,0.2-1.6,0.1-2.4,0.1V8.7l0.1,0l6.8,3.1l10.8,11.8l4.3,7.7l1.5,1.2l0.3,1.9h1.5
	l0.9,1.5l1.9,1.5l5.3,0.3l2.5-1.2l3.7-4l6.5,1.9l17.6-11.1l12.4,2.2l4,3.1l1.9,0.3l6.5,6.5l3.1-0.3l3.1,1.2l1.9,1.9l1.2,2.2l13.6,5
	l1.9-0.3l9.6,0.6l3.7,0.3h4.3l5.9,0.6l3.4-0.6l5.6-6.2l1.9-2.5l3.7-4l4.6-3.4l6.8-3.1l6.2,0.6l4.6-1.5l4.6-1.9l2.5-0.9l17.9-0.6
	L347.4,22.5z"/>
<g>
	<g>
		<path stroke="#000000" stroke-miterlimit="20" class="st2" d="M115.1,369.5L115.1,369.5c-0.4-0.4-0.3-1.1,0.1-1.4l7.1-5.9c1.3-1.1,3-1.7,4.8-1.7h20.5
			c1.6,0,3.2-0.5,4.5-1.5l7.9-6c1.5-1.1,2.5-2.7,2.8-4.5l3.3-16.4c0.1-0.3,0.1-0.6,0.1-0.9l1.5-19.1c0-0.3,0-0.6,0-1l-1.5-32.4
			c0-0.6,0-1.1,0.1-1.7l5-28c0.3-1.5,0.1-3-0.5-4.3l-4.4-10c-0.1-0.2-0.2-0.5-0.4-0.7l-7.4-13c-0.6-1.1-1.6-2-2.7-2.7l-5.4-3.2
			c-0.4-0.3-0.9-0.5-1.4-0.6l-17.7-6.1l-18.1-5.5c-0.4-0.1-0.7-0.3-1.1-0.4l-14.4-7c-0.2-0.1-0.5-0.2-0.7-0.4l-16-9.9
			c-2.1-1.3-3.5-3.6-3.5-6.1l-0.7-22.2V138c0-1,0.2-2,0.6-2.9l3-6.9c0.7-1.7,0.8-3.6,0.2-5.4l-4.1-11.7c-0.3-0.8-0.7-1.5-1.2-2.1
			l-6.9-8.9c-0.2-0.2-0.4-0.5-0.6-0.7L63.9,95c-1.4-1.4-3.3-2.2-5.3-2.2h-2.6c-1.4,0-2.8-0.4-4-1.1L35.1,81.1
			c-0.5-0.3-0.6-0.9-0.3-1.4l0,0c0.3-0.5,0.9-0.6,1.3-0.3l16.4,10.2c1.2,0.7,2.6,1.1,4,1.1h2.8c2,0,3.9,0.8,5.3,2.2l5.1,5.1
			c0.2,0.2,0.4,0.5,0.6,0.7l7.2,9.3c0.5,0.6,0.9,1.3,1.1,2.1l4.4,12.6c0.6,1.8,0.6,3.7-0.2,5.4l-3.1,7.3c-0.4,0.9-0.6,1.9-0.6,3
			v18.4l0.7,21.1c0.1,2.5,1.4,4.8,3.5,6.1l15,9.3c0.2,0.1,0.5,0.3,0.7,0.4l14.2,6.9c0.3,0.2,0.7,0.3,1.1,0.4l17.8,5.4l18,6.2
			c0.5,0.2,1,0.4,1.4,0.7l6,3.6c1.1,0.7,2,1.6,2.6,2.7L168,233c0.1,0.2,0.3,0.5,0.4,0.8l4.6,10.6c0.6,1.4,0.8,2.9,0.5,4.3l-5.1,28.4
			c-0.1,0.6-0.1,1.1-0.1,1.7l1.6,32.8l0,0l-1.6,19.8c0,0.3-0.1,0.6-0.1,0.9l-3.5,17.2c-0.4,1.8-1.4,3.4-2.8,4.5l-9.1,6.9
			c-1.3,1-2.9,1.5-4.5,1.5h-20.4c-1.7,0-3.4,0.6-4.8,1.7l-6.6,5.5C116,369.9,115.4,369.9,115.1,369.5z"/>
	</g>
	<g>
		<path stroke="#000000" stroke-miterlimit="20" class="st2" d="M359.6,278.5L359.6,278.5c-0.4-0.4-0.5-1-0.1-1.4l5.4-5.8c0.1-0.2,0.3-0.3,0.4-0.5l4.2-5.4
			c1-1.3,1.6-2.9,1.6-4.6v-4c0-4.3-3.6-7.7-7.9-7.5h0c-1,0.1-2-0.1-2.9-0.4l-10.5-3.8c-0.7-0.3-1.4-0.6-1.9-1.1l-8.2-6.1
			c-0.9-0.7-1.6-1.5-2.1-2.4l-4.4-8.2c-0.7-1.2-1.6-2.2-2.8-2.9l-3.9-2.3c-1.1-0.7-2.5-1-3.8-1h-3.8c-1.4,0-2.9,0.4-4.1,1.2
			l-10.7,6.9c-0.2,0.1-0.4,0.2-0.5,0.3l-14.4,7.7c-0.2,0.1-0.4,0.2-0.5,0.3l-18,11.6c-0.8,0.5-1.8,0.9-2.8,1.1l-16.5,2.8
			c-1.6,0.3-3.2,0-4.6-0.7l-8.8-4.3c-0.4-0.2-0.8-0.4-1.2-0.5l-10.6-3.1c-0.4-0.1-0.7-0.2-1.1-0.2l-24.8-3.2
			c-0.8-0.1-1.6-0.1-2.3,0.1l-10.1,1.9c-0.3,0.1-0.6,0.1-0.9,0.2l-12.8,4.1c-0.5,0.2-1.1-0.1-1.2-0.6l0,0c-0.2-0.5,0.1-1.1,0.6-1.2
			l13-4.2c0.3-0.1,0.6-0.2,0.9-0.2l11.7-2.2h0.1l26.3,3.4c0.4,0,0.7,0.1,1.1,0.2l10.9,3.2c0.4,0.1,0.8,0.3,1.2,0.5l8.3,4.1
			c1.4,0.7,3,0.9,4.6,0.7l15.5-2.7c1-0.2,1.9-0.5,2.8-1.1l17.7-11.4c0.2-0.1,0.3-0.2,0.5-0.3l14.3-7.7c0.2-0.1,0.3-0.2,0.5-0.3
			l11.2-7.2c1.2-0.8,2.6-1.2,4.1-1.2h4.8c1.3,0,2.7,0.4,3.8,1.1l4.9,2.9c1.1,0.7,2.1,1.7,2.7,2.8l4.5,8.3c0.5,0.9,1.2,1.8,2.1,2.4
			l7.8,5.9c0.6,0.4,1.3,0.8,2,1.1l9.7,3.5c0.9,0.3,1.9,0.5,2.9,0.4l1.7-0.1c4.3-0.2,7.9,3.2,7.9,7.5v6.8c0,1.7-0.6,3.3-1.6,4.6
			l-4.7,6c-0.1,0.2-0.3,0.3-0.4,0.5l-5.4,5.9C360.6,278.8,360,278.8,359.6,278.5z"/>
	</g>
	<g>
		<path stroke="#000000" stroke-miterlimit="20" class="st2" d="M130.7,395.5L130.7,395.5c-0.5-0.3-0.7-0.9-0.5-1.4l4.8-9.4c0.1-0.2,0.2-0.3,0.2-0.5l3.9-9
			c0.4-0.8,0.9-1.6,1.5-2.3l4.9-5.1c0.5-0.5,1-1.2,1.3-1.8l2.1-4.2c0.2-0.5,0.8-0.7,1.3-0.4l0,0c0.5,0.2,0.7,0.8,0.4,1.3l-2.4,4.6
			c-0.3,0.6-0.8,1.2-1.3,1.7l-4.8,4.9c-0.6,0.7-1.2,1.4-1.5,2.3l-3.8,8.8c-0.1,0.2-0.1,0.3-0.2,0.5L132,395
			C131.8,395.5,131.2,395.7,130.7,395.5z"/>
	</g>
	<g>
		<path stroke="#000000" stroke-miterlimit="20" class="st2" d="M119.4,382.5L119.4,382.5c-0.3-0.5-0.2-1.1,0.3-1.4l4.3-2.7c0.7-0.5,1.4-1,1.9-1.7l3.1-3.9
			c0.7-0.9,1.6-1.6,2.7-2.1l8.5-4c0.5-0.2,0.9-0.5,1.3-0.8l5.3-4c0.4-0.3,1.1-0.2,1.4,0.2l0,0c0.3,0.4,0.2,1-0.2,1.4l-5.6,4.3
			c-0.4,0.3-0.8,0.6-1.3,0.8l-8.2,4c-1,0.5-1.8,1.2-2.5,2l-3.3,4c-0.5,0.6-1.1,1.1-1.8,1.6l-4.5,2.8
			C120.3,383.1,119.7,382.9,119.4,382.5z"/>
	</g>
	<g>
		<path stroke="#000000" stroke-miterlimit="20" class="st2" d="M149.8,402l-0.3-1.4c-0.1-0.3-0.1-0.5-0.1-0.8l-1.3-13c-0.1-0.7,0-1.5,0.1-2.2l2.2-11.4
			c0.2-0.8,0.5-1.6,0.9-2.4l3.4-5.7c0.7-1.2,1-2.5,1-3.8v-3.6c0-0.5,0.4-1,1-1h0c0.5,0,1,0.4,1,1v4.1c0,1.4-0.4,2.7-1.1,3.8
			l-3.5,5.8c-0.4,0.7-0.8,1.5-0.9,2.4l-2.1,10.8c-0.1,0.7-0.2,1.5-0.1,2.2l1.3,12.7c0,0.2,0,0.4,0.1,0.6l0.3,1.5
			c0.1,0.5-0.2,1-0.8,1.1l0,0C150.4,402.9,149.9,402.6,149.8,402z"/>
	</g>
	<g>
		<path stroke="#000000" stroke-miterlimit="20" class="st2" d="M171.5,399.1l-5-8.4c-0.6-0.9-0.9-2-1-3.1l-0.9-9.5c-0.1-0.8-0.3-1.6-0.6-2.3l-1.8-4.1
			c-0.6-1.3-0.8-2.7-0.6-4l1.2-9.2c0-0.3,0.1-0.7,0.1-1v-3.2c0-0.5,0.4-1,1-1h0c0.5,0,1,0.4,1,1v3.4c0,0.3,0,0.7-0.1,1l-1.2,8.7
			c-0.2,1.4,0,2.8,0.6,4l1.7,3.9c0.3,0.7,0.5,1.5,0.6,2.4l0.8,9.4c0.1,1.1,0.4,2.2,1,3.1l4.7,8c0.3,0.5,0.1,1.1-0.3,1.4l0,0
			C172.4,399.7,171.8,399.5,171.5,399.1z"/>
	</g>
</g>
</svg>
